<svg xmlns="http://www.w3.org/2000/svg" width="451.272" height="280.144" viewBox="0 0 451.272 280.144"><path d="M225.633 236.581q-8.954 0-17.814-.205v25.949a17.814 17.814 0 1 0 35.628 0v-25.949q-8.853.201-17.814.205z"/><path d="M108.249 227.093l-10.27 29.349a17.813 17.813 0 1 0 33.627 11.767l12.6-36.012c-12.417-1.387-24.442-3.093-35.957-5.104z"/><path d="M353.288 256.441l-10.269-29.349c-11.51 2.01-23.536 3.717-35.959 5.1l12.6 36.012a17.813 17.813 0 1 0 33.627-11.767z"/><path d="M350.861 57.996a129.632 129.632 0 0 1 4.9 35.425 35.626 35.626 0 0 1-21.145 32.55c-1.99.885-49.413 21.686-107.9 21.686S120.8 126.855 118.812 125.971a35.627 35.627 0 0 1-21.145-32.55 129.569 129.569 0 0 1 5.042-35.9C55.186 67.056 0 86.2 0 123.671c0 25.257 24.824 45.168 73.783 59.177a408.453 408.453 0 0 0 46.4 10.146c11.535 1.877 23.62 3.436 36.114 4.663 16.553 1.626 33.826 2.666 51.523 3.085q8.845.209 17.814.215t17.814-.215c17.695-.418 34.97-1.46 51.523-3.085 12.495-1.227 24.578-2.783 36.113-4.663a408.4 408.4 0 0 0 46.405-10.146c48.957-14.01 73.78-33.92 73.78-59.177.003-36.936-53.825-56.05-100.408-65.675z"/><path d="M311.2 53.521a93.42 93.42 0 0 0-177.905 39.9s41.827 18.609 93.423 18.609 93.421-18.609 93.421-18.609a93.057 93.057 0 0 0-8.939-39.9z"/></svg>